<svg xmlns="http://www.w3.org/2000/svg" viewBox="0 0 64 64" role="img" aria-label="Bootstraps">
  <!-- Monogram: zoomed face + straps + boots — fill plate -->
  <rect width="64" height="64" rx="14" fill="#161310"/>
  <rect x="1.5" y="1.5" width="61" height="61" rx="12.5" fill="none" stroke="#3a342c" stroke-width="1.5"/>

  <!-- body -->
  <ellipse cx="38" cy="40" rx="12" ry="14" fill="#1a1a1a"/>
  <!-- head large -->
  <circle cx="28" cy="28" r="14" fill="#f0c4a8"/>
  <ellipse cx="28" cy="30" rx="11" ry="10" fill="#e07060" opacity="0.55"/>
  <path fill="#1a1410" d="M15 24c2-9 9-14 16-13 5 1 9 4 10 9-3-2-5-3-8-2-4 1-7 3-10 6z"/>
  <!-- strain eyes -->
  <path d="M21 27c1.6 1.5 3.2 1.5 4.8 0" fill="none" stroke="#2a1a14" stroke-width="1.6" stroke-linecap="round"/>
  <path d="M30 27c1.6 1.5 3.2 1.5 4.8 0" fill="none" stroke="#2a1a14" stroke-width="1.6" stroke-linecap="round"/>
  <!-- teeth -->
  <path d="M22 35h12" stroke="#2a1a14" stroke-width="2" stroke-linecap="round"/>
  <path d="M23 34.5v2.5M28 34.5v2.5M33 34.5v2.5" stroke="#fff8f0" stroke-width="1.1"/>
  <!-- sweat -->
  <ellipse cx="14" cy="24" rx="1.6" ry="2.3" fill="#7ec8e8"/>

  <!-- arms + straps (bold) -->
  <path d="M28 24 C22 14 20 10 24 8" fill="none" stroke="#f0c4a8" stroke-width="4" stroke-linecap="round"/>
  <path d="M34 26 C40 14 46 10 48 9" fill="none" stroke="#f0c4a8" stroke-width="4" stroke-linecap="round"/>
  <circle cx="24" cy="8" r="3" fill="#f0c4a8"/>
  <circle cx="48" cy="9" r="3" fill="#f0c4a8"/>
  <path d="M24 8 C18 4 16 2 19 1 C22 0 27 5 28 9" fill="none" stroke="#b07840" stroke-width="2.8" stroke-linecap="round"/>
  <path d="M48 9 C54 4 58 2 55 0.5 C52 -1 44 5 43 9" fill="none" stroke="#b07840" stroke-width="2.8" stroke-linecap="round"/>
  <path d="M48 9 L50 48" fill="none" stroke="#d8c4a0" stroke-width="2" stroke-linecap="round"/>

  <!-- boots large -->
  <path fill="#a86b38" d="M10 48h18v8c0 2-1.5 3.5-3.5 3.5H13c-2 0-3.5-1.5-3.5-3.5V50c0-1.2.8-2 2-2z"/>
  <path fill="#2a241c" d="M10 54h18v4H12c-1.2 0-2-1-2-2v-2z"/>
  <path fill="#a86b38" d="M36 47h20l1 8c0 2-1.5 3.5-3.5 3.5H39c-2 0-3.5-1.5-3.5-3.5V49c0-1.2.8-2 2-2z"/>
  <path fill="#2a241c" d="M36 54h21v3.5c0 1.2-1 2-2 2H38c-1.2 0-2-1-2-2V54z"/>
</svg>
